# xmcd
#
# Track frame offsets: 
#        300
#        6357
#        26884
#        45954
#        66305
#        89230
#        108028
#        119371
#        137346
#        141653
#        158210
#        169226
#        186933
#
# Disc length: 2577 seconds
#
# Revision: 0
# Processed by: cddbd v1.5.2PL0 Copyright (c) Steve Scherf et al.
# Submitted via: ExactAudioCopy v1.0b1
#
DISCID=bb0a0d0d
DTITLE=Rita Chiarelli - Music From The Big House Sound
DYEAR=2011
DGENRE=General Blues
TTITLE0=Rita's Journey
TTITLE1=These Four Walls
TTITLE2=Mississippi Boy
TTITLE3=Don't Let Him Catch You (With Your Work Undone)
TTITLE4=Mercy Blues
TTITLE5=Harvest
TTITLE6=Rest My Bones
TTITLE7=Glory Glory
TTITLE8=Rain On Me (Prison Rehearsal)
TTITLE9=Rain On Me
TTITLE10=I Love You Still
TTITLE11=Midnight Special
TTITLE12=Convicted
EXTD=
EXTT0=
EXTT1=
EXTT2=
EXTT3=
EXTT4=
EXTT5=
EXTT6=
EXTT7=
EXTT8=
EXTT9=
EXTT10=
EXTT11=
EXTT12=
PLAYORDER=
